# xmcd
#
# Track frame offsets:
#	150
#	16285
#	31352
#	46087
#	62697
#	76890
#	91927
#	108342
#	125987
#	139047
#
# Disc length: 2086 seconds
#
# Revision: 5
# Processed by: cddbd v1.5.2PL0 Copyright (c) Steve Scherf et al.
# Submitted via: audiograbber 1.83.01
#
DISCID=7b08240a
DTITLE=Billy Dean - Billy Dean - Greatest Hits
DYEAR=1994
DGENRE=Country
TTITLE0=Only Here For A Little While
TTITLE1=Somewhere In My Broken Heart
TTITLE2=You Don't Count The Cost
TTITLE3=Only The Wind
TTITLE4=Billy The Kid
TTITLE5=If There Hadn't Been You
TTITLE6=Tryin' To Hide A Fire In The Dark
TTITLE7=I Wanna Take Care Of You
TTITLE8=I'm Not Built That Way
TTITLE9=Once In A While
EXTD=released 1994 YEAR: 1994
EXTT0=
EXTT1=
EXTT2=
EXTT3=
EXTT4=
EXTT5=
EXTT6=
EXTT7=
EXTT8=
EXTT9=
PLAYORDER=
